<?xml version="1.0" encoding="UTF-8" standalone="no"?>
<!-- Created with Inkscape (http://www.inkscape.org/) -->

<svg
   xmlns:dc="http://purl.org/dc/elements/1.1/"
   xmlns:cc="http://creativecommons.org/ns#"
   xmlns:rdf="http://www.w3.org/1999/02/22-rdf-syntax-ns#"
   xmlns:svg="http://www.w3.org/2000/svg"
   xmlns="http://www.w3.org/2000/svg"
   xmlns:sodipodi="http://sodipodi.sourceforge.net/DTD/sodipodi-0.dtd"
   xmlns:inkscape="http://www.inkscape.org/namespaces/inkscape"
   width="35mm"
   height="35mm"
   viewBox="0 0 35 35"
   version="1.1"
   id="svg8"
   inkscape:version="0.92.2 (5c3e80d, 2017-08-06)"
   sodipodi:docname="ProGenealogy.svg">
  <defs
     id="defs2" />
  <sodipodi:namedview
     id="base"
     pagecolor="#ffffff"
     bordercolor="#666666"
     borderopacity="1.0"
     inkscape:pageopacity="0.0"
     inkscape:pageshadow="2"
     inkscape:zoom="0.49497475"
     inkscape:cx="130.14981"
     inkscape:cy="451.79574"
     inkscape:document-units="mm"
     inkscape:current-layer="layer1"
     showgrid="false"
     inkscape:window-width="1304"
     inkscape:window-height="745"
     inkscape:window-x="-8"
     inkscape:window-y="-8"
     inkscape:window-maximized="1" />
  <metadata
     id="metadata5">
    <rdf:RDF>
      <cc:Work
         rdf:about="">
        <dc:format>image/svg+xml</dc:format>
        <dc:type
           rdf:resource="http://purl.org/dc/dcmitype/StillImage" />
        <dc:title></dc:title>
      </cc:Work>
    </rdf:RDF>
  </metadata>
  <g
     inkscape:label="Layer 1"
     inkscape:groupmode="layer"
     id="layer1"
     transform="translate(0,-262)">
    <flowRoot
       xml:space="preserve"
       id="flowRoot20"
       style="font-style:normal;font-variant:normal;font-weight:normal;font-stretch:normal;font-size:40px;line-height:1.25;font-family:HakusyuKaisyoExtraBold_kk;-inkscape-font-specification:'HakusyuKaisyoExtraBold_kk, Normal';font-variant-ligatures:normal;font-variant-caps:normal;font-variant-numeric:normal;text-align:start;letter-spacing:0px;word-spacing:0px;writing-mode:lr-tb;text-anchor:start;fill:#000000;fill-opacity:1;stroke:none"
       transform="matrix(0.21428571,0,0,0.21428571,15.714284,233.35714)"><flowRegion
         id="flowRegion22"><rect
           id="rect24"
           width="155.56349"
           height="163.64471"
           x="141.42136"
           y="183.56866" /></flowRegion><flowPara
         id="flowPara26" /></flowRoot>    <flowRoot
       xml:space="preserve"
       id="flowRoot38"
       style="font-style:normal;font-variant:normal;font-weight:normal;font-stretch:normal;font-size:40px;line-height:1.25;font-family:HakusyuKaisyoExtraBold_kk;-inkscape-font-specification:'HakusyuKaisyoExtraBold_kk, Normal';font-variant-ligatures:normal;font-variant-caps:normal;font-variant-numeric:normal;text-align:start;letter-spacing:0px;word-spacing:0px;writing-mode:lr-tb;text-anchor:start;fill:#000000;fill-opacity:1;stroke:none"
       transform="matrix(0.21428571,0,0,0.21428571,15.714284,233.35714)"><flowRegion
         id="flowRegion40"><rect
           id="rect42"
           width="133.34013"
           height="173.74623"
           x="204.05081"
           y="215.89355" /></flowRegion><flowPara
         id="flowPara44" /></flowRoot>    <g
       id="g4692"
       transform="matrix(0.17191567,0,0,0.16737833,3.2033549,247.42259)">
      <path
         inkscape:connector-curvature="0"
         d="m 0.75675591,159.54717 c 0.0665866,-0.22996 0.15536037,-0.45462 0.19975084,-0.68987 0.0483925,-0.25644 0.16870185,-1.55579 0.21415765,-1.85339 0.2446333,-1.60154 0.5443884,-2.55483 1.2595324,-3.99405 1.339828,-1.90744 2.3934795,-4.00243 3.7276892,-5.90986 0.8306579,-1.83062 2.0717171,-3.41149 3.1145496,-5.12177 1.4171334,-1.46182 2.4702414,-3.18655 3.5148004,-4.91791 0.605174,-0.99232 1.421088,-1.81145 2.159599,-2.69478 0.752336,-0.89986 1.228291,-1.62514 2.077317,-2.48451 1.804562,-1.72412 -0.478895,0.42634 1.65591,-1.46926 14.155096,-12.56899 -3.620028,1.19718 42.816806,-25.39753 -0.53214,0.18704 2.351647,-1.25277 1.774381,-0.92012 -12.778913,7.36384 -25.595506,14.66213 -38.38038,22.01562 -0.310885,0.17881 0.649699,-0.3067 0.957365,-0.49099 0.368654,-0.22083 0.695729,-0.50739 1.06793,-0.72218 13.360508,-7.71011 26.751527,-15.36723 40.12729,-23.05084 1.08989,-0.4078 2.176877,-0.59739 3.327254,-0.67925 0.989387,-0.0704 1.18369,-0.19503 2.171728,0.14954 0.455167,0.15873 0.871628,0.41202 1.307438,0.61804 0.390932,0.21617 0.823548,0.36999 1.172797,0.64853 1.857286,1.48128 3.157916,4.29111 3.882462,6.49491 0.466786,1.59429 0.548597,3.25622 0.771086,4.89143 0.18848,1.38529 0.422928,2.73404 0.534294,4.12948 0.03113,0.4138 0.08838,0.82648 0.09331,1.24143 0.04472,3.76964 -0.185806,-0.89641 -0.05671,2.78017 0.01422,0.40606 0.07567,0.80973 0.0856,1.21593 0.0195,0.79857 -0.05796,1.9162 -0.100729,2.70325 -0.407168,3.63018 -0.293558,7.29275 -0.621061,10.92458 -0.234967,1.85164 -0.283905,3.72612 -0.514185,5.57777 -0.215673,1.73418 -0.576586,3.4432 -0.785882,5.17978 -0.149023,2.13196 -0.897944,4.14245 -1.375437,6.20414 -0.34262,1.89972 -0.144882,0.96049 -0.591533,2.81802 -1.490264,3.07699 -2.314072,6.3932 -3.218626,9.66935 -0.978297,3.54324 -0.308898,0.69713 -1.032728,3.99784 -0.443913,1.68399 -0.594127,3.42084 -0.869427,5.1344 -0.26318,1.63807 -0.584254,3.23005 -0.750266,4.88301 -0.09451,0.50568 -0.159088,1.0179 -0.283529,1.51707 -0.16209,0.65017 -0.401023,1.27914 -0.574895,1.92627 -0.532339,1.98128 -0.888467,4.02264 -1.280743,6.03526 -0.71499,3.17454 -1.286133,6.37602 -1.930568,9.56487 -0.624539,2.25811 -0.812364,4.60208 -1.187472,6.90602 -0.145377,0.89291 -0.482428,2.25321 -0.684921,3.11503 -0.124769,0.51048 -0.268236,1.01675 -0.374312,1.53143 -0.09137,0.44335 -0.134563,0.89548 -0.217575,1.34048 -0.37693,2.02055 -0.906818,4.00589 -1.442889,5.98836 -0.500779,1.83956 -0.563658,3.74866 -0.749774,5.63193 -0.03736,0.37808 -0.327343,2.29573 -0.377822,2.63535 -0.04663,0.46781 -0.09327,0.93563 -0.139901,1.40343 0.0014,0.42402 0.03663,0.84926 0.0044,1.27205 -0.0444,0.5821 -0.158412,1.15679 -0.233809,1.73569 -0.167446,1.28564 -0.291359,2.57461 -0.450742,3.86109 -0.02541,0.31608 -0.03155,0.63431 -0.07622,0.94825 -0.17498,1.22963 -0.24946,0.98827 -0.462775,2.21544 -0.17307,0.99564 -0.232484,2.02269 -0.365677,3.02491 -0.0754,0.49117 -0.129787,0.98604 -0.226202,1.47352 -0.09474,0.47901 -0.588772,2.31224 -0.692995,2.76761 -0.297215,1.2986 -0.524205,2.56023 -0.890804,3.84541 -0.521807,2.44085 -1.579215,4.70217 -2.32268,7.07261 -0.812466,1.81668 -1.462785,3.69903 -2.218432,5.53776 -1.265876,3.0803 -0.03874,-0.21082 -1.10593,2.73567 -0.586096,2.08816 -1.412954,4.02123 -2.581166,5.845 -0.152614,0.34481 -0.344586,0.67477 -0.457838,1.03444 -0.08564,0.27199 -0.08929,0.56328 -0.133931,0.84492 -13.361229,7.97319 -26.553939,16.23582 -40.0836909,23.91957 -0.3309669,0.18796 -0.7481752,-0.29497 -0.9679378,-0.60574 -2.4452944,-3.45783 -2.2712685,-2.56541 -1.8981322,-5.19336 1.0095831,-1.85111 2.2263833,-3.58651 3.2097173,-5.45211 0.6989893,-1.32614 1.3324286,-2.68604 2.0252756,-4.0154 1.289644,-3.13594 2.77291,-6.1994 3.846136,-9.42028 0.428765,-1.28677 1.06129,-3.54462 1.43721,-4.85605 0.46729,-2.67173 1.43004,-5.2064 2.195743,-7.79542 0.262262,-0.88677 0.684509,-2.61166 0.908533,-3.50548 0.532568,-2.25805 0.917771,-4.53836 1.495296,-6.78372 0.115651,-0.44963 0.188002,-0.91109 0.329325,-1.35333 0.167866,-0.5253 0.39753,-1.02882 0.596296,-1.54323 0.156806,-0.47436 0.305504,-0.95149 0.470415,-1.42309 0.316214,-0.90427 0.878291,-2.33134 1.163292,-3.24879 0.517783,-1.66681 0.840168,-3.39683 1.203035,-5.10116 0.37381,-1.57402 0.545993,-3.19687 0.919919,-4.77021 0.421961,-1.77545 0.962837,-3.53955 1.438439,-5.30221 0.154099,-0.59925 0.34129,-1.19095 0.462292,-1.79774 0.342362,-1.71682 0.433527,-3.47368 0.865795,-5.1785 0.331738,-1.30833 0.782925,-2.58353 1.157387,-3.88028 0.651663,-3.17714 1.793351,-6.23492 2.366888,-9.4278 0.88655,-2.70776 1.585365,-5.46545 2.357877,-8.20678 0.856527,-2.49204 1.435348,-5.06655 2.061745,-7.6228 0.769923,-2.06857 1.353564,-4.2173 2.202291,-6.2569 0.494268,-1.18779 1.065658,-2.34209 1.582171,-3.52038 0.927365,-2.79549 2.361222,-5.37308 3.436959,-8.10513 0.85125,-2.17924 1.901763,-4.26309 2.909624,-6.37019 0.418234,-1.19547 1.280046,-2.16082 1.861632,-3.26317 0.233396,-0.44237 0.397185,-0.91811 0.595092,-1.37747 0.88448,-2.05295 0.372049,-0.90466 1.322887,-2.97462 1.005697,-2.55825 2.434966,-4.92026 3.969325,-7.19294 1.086052,-1.40823 1.862612,-3.13929 3.271101,-4.28006 0.29797,-0.24134 0.628302,-0.43971 0.942453,-0.65957 0.357733,-0.28838 0.697345,-0.60082 1.073203,-0.86514 0.414695,-0.29164 0.867331,-0.52543 1.293843,-0.79951 0.43925,-0.28225 0.850605,-0.60863 1.303054,-0.8692 13.308996,-7.66485 26.641703,-15.2885 39.978253,-22.9053 1.55034,-0.88543 1.38161,-0.71764 3.20791,-1.29477 3.69799,-1.69237 7.5062,-3.15601 11.43238,-4.22363 2.42357,-0.77721 4.94518,-0.56327 7.44175,-0.62156 1.32872,0.13502 2.68449,-0.13599 4.01076,0.0325 0.51422,0.0653 1.83998,0.41977 2.30508,0.53784 1.5809,0.16774 2.68184,1.16365 3.95125,1.98499 1.12843,0.73012 2.3558,1.3465 3.52291,2.01382 2.44915,1.2834 3.54878,3.39089 4.75078,5.74141 0.64071,1.52396 1.13338,3.09479 1.25164,4.75457 0.0653,0.91691 0.0378,1.83882 0.10207,2.75582 0.0281,0.41299 0.0815,0.82503 0.0844,1.23898 0.004,0.47328 -0.0634,0.94504 -0.0664,1.41833 -0.0107,1.69484 0.0488,3.38745 0.1367,5.0808 0.002,0.39369 0.003,0.78739 0.004,1.18108 -0.0236,0.4334 -0.0655,0.86619 -0.0708,1.3002 -0.004,0.39716 0.0436,0.79372 0.0403,1.19092 -0.0114,1.40495 -0.17318,2.80525 -0.32994,4.1991 -0.0814,0.59214 -0.15999,1.18465 -0.2441,1.7764 -0.0755,0.53124 -0.12034,1.06829 -0.23482,1.59252 -0.48646,2.22763 -1.50362,4.33848 -2.34074,6.44719 -0.24747,0.54986 -0.46228,1.11562 -0.74241,1.64959 -0.18495,0.35254 -1.9216,3.24783 -2.18334,3.67523 -1.15916,1.89288 -2.32766,3.77297 -3.56415,5.61609 -1.54875,2.23053 -2.77163,4.67346 -4.31986,6.90402 -4.45443,6.41752 1.35126,-2.26181 -2.53308,3.58934 -1.74202,2.67574 -3.62117,5.26151 -5.59079,7.77399 -0.8314,1.01832 -1.81014,1.90077 -2.70577,2.85647 -0.7688,0.82037 -1.43168,1.68351 -2.24645,2.46493 -12.53251,12.16877 0.43526,0.65726 -41.607549,24.83645 -0.291402,0.16758 -0.660311,0.15317 -0.963001,0.29937 -0.315589,0.15243 -1.175857,0.76211 -0.872254,0.58704 12.794611,-7.3777 25.564925,-14.79745 38.347394,-22.19618 -1.46447,0.86789 -2.77462,1.9777 -4.09992,3.04128 -0.32241,0.25873 -0.61132,0.56691 -0.96941,0.77347 -13.353822,7.70278 -26.76926,15.29825 -40.153892,22.94737 -0.385483,0.17058 -0.764169,0.35742 -1.156446,0.51173 -2.005091,0.78874 -0.522326,0.10474 -2.521592,0.84562 -1.390187,0.51518 -2.739968,1.18519 -4.098408,1.77678 -0.486335,0.21601 -0.978331,0.41971 -1.459005,0.64804 -1.352864,0.64264 -1.548585,0.86359 -2.966278,1.38898 -1.405862,0.521 -2.882392,0.87334 -4.34793,1.17104 -1.67865,0.12029 -3.425238,-0.0378 -5.085998,0.29663 -3.019093,0.60809 0.896163,0.0631 -2.17757,0.44513 -2.123451,0.26631 -4.277048,0.48473 -6.420702,0.45657 -1.748095,0.0676 -3.494586,-0.003 -5.24231,0.0535 -2.438712,0.21718 -3.526809,-1.45743 -4.427802,-3.48185 -0.965348,-2.0443 -1.052587,-4.31844 -1.321586,-6.5246 -0.0584,-1.77701 -0.411053,-3.62371 -0.14744,-5.40082 0.05886,-0.39681 0.194493,-0.77837 0.291738,-1.16756 0.483102,-1 1.191971,-3.04705 2.151535,-3.61021 37.435406,-21.97052 26.366488,-16.53706 41.106189,-23.73821 1.038687,-0.63246 2.139829,-0.61321 3.301025,-0.69363 0.805989,-0.0558 1.613508,-0.20089 2.424095,-0.20259 0.406864,-8.9e-4 0.812233,0.0494 1.218354,0.0741 2.541767,-0.0941 5.07289,-0.0833 7.57921,0.36989 0.374321,0.0581 0.75969,0.0671 1.122946,0.17453 0.708006,0.20932 1.629601,0.78316 2.247477,1.14265 1.030938,0.59981 2.062208,1.19914 3.085981,1.81111 0.280453,0.11964 0.578071,0.20517 0.841376,0.35893 2.350451,1.37256 -0.471447,0.0174 1.946101,1.32468 0.313174,0.16935 0.666063,0.25782 0.977761,0.42986 3.309096,1.82637 -1.035143,-0.29186 2.267334,1.27059 0.368803,0.17288 0.728374,0.36701 1.106407,0.51865 0.332746,0.13349 0.696324,0.18527 1.022012,0.33516 0.839676,0.38643 1.530033,0.97053 2.329598,1.42391 0.92478,0.52438 1.25649,0.59889 2.2321,0.94992 1.95525,0.9746 4.06383,1.38377 6.21249,1.68629 1.37524,0.72059 2.9125,0.88632 4.3902,1.25761 1.40891,0.354 2.796,0.76653 4.13883,1.31512 0.98208,0.31121 1.29967,0.44317 2.28196,0.64104 0.30252,0.0609 0.61804,0.0576 0.91481,0.14222 1.05915,0.30205 2.09888,1.00431 3.12301,1.45742 0.28451,0.0875 0.57964,0.14583 0.85353,0.26238 0.33814,0.14389 0.63971,0.36398 0.97449,0.51552 0.59272,0.26829 1.22449,0.44135 1.82677,0.6874 1.63079,0.66624 0.35317,0.21752 1.88855,0.72156 0,0 -38.41077,25.61378 -38.41077,25.61378 v 0 c -1.764125,-0.94938 -3.690655,-1.52757 -5.483564,-2.41698 -0.26928,-0.13355 -0.52721,-0.29297 -0.807832,-0.40066 -0.685608,-0.26308 -1.178719,-0.25248 -1.889705,-0.48012 -0.87687,-0.28075 -1.115997,-0.48839 -1.92424,-0.86719 -0.335044,-0.15703 -0.677593,-0.2975 -1.016394,-0.44625 -2.62331,-0.79763 -5.219561,-1.83306 -7.983074,-2.02193 -2.527765,-0.54155 -5.110319,-0.94646 -7.24384,-2.53095 -0.699012,-0.44723 -1.368778,-0.89724 -2.108932,-1.27827 -1.476248,-0.75995 -3.124175,-1.16035 -4.490434,-2.14767 -2.430012,-1.40826 0.312205,0.12242 -2.288079,-1.14256 -3.180006,-1.54698 0.629295,0.17299 -2.236355,-1.20644 -0.333998,-0.16078 -0.692274,-0.26915 -1.021583,-0.43932 -0.339591,-0.17549 -0.653491,-0.39677 -0.980237,-0.59514 -1.087252,-0.66107 -2.188475,-1.2599 -3.475234,-1.41122 -0.317168,-0.0373 -0.639073,-0.0216 -0.956274,-0.0586 -0.279709,-0.0326 -0.55425,-0.10007 -0.831376,-0.15012 -2.275659,-0.10518 -4.556339,0.0691 -6.822356,0.27017 -1.066487,0.24604 -2.249904,0.42121 -3.260506,0.8652 -0.994203,0.43677 -1.82632,1.14736 -2.784736,1.64677 -13.286029,7.93559 -19.02713,11.35899 37.553122,-21.77076 0.262491,-0.1537 -0.564592,0.23619 -0.862297,0.29864 -0.290593,0.0609 -0.612648,-0.0423 -0.888113,0.0685 -0.50473,0.20304 -0.73603,0.85551 -1.240458,1.06068 -0.232308,0.17602 -0.880533,0.63286 -1.047596,0.89336 -0.643192,1.0029 -0.334792,2.34528 -0.409234,3.45017 0.01368,1.45635 0.06214,3.01826 0.848494,4.29271 0.721687,0.76896 0.08596,0.0887 0.17559,-0.25173 0.05234,-0.19876 1.332416,-0.18957 1.444746,-0.14945 1.641497,0.0608 3.282191,-0.005 4.924055,-0.0335 1.931923,-0.16859 3.86942,-0.25458 5.779187,-0.62523 0.396353,-0.0691 0.788743,-0.16714 1.189068,-0.20737 0.368954,-0.037 0.741773,-0.006 1.112168,-0.0239 1.557353,-0.0737 3.131665,-0.23892 4.584056,-0.84051 2.681649,-0.91942 5.188665,-2.23589 7.804282,-3.32393 2.735533,-1.177 5.515091,-2.2649 8.122281,-3.71462 -12.637996,7.27782 -25.304702,14.50604 -37.914008,21.83347 -0.363615,0.21131 0.789921,-0.29324 1.167061,-0.47934 1.389792,-0.68576 2.622728,-1.74186 3.707171,-2.82929 13.346837,-7.79993 26.693677,-15.59985 40.040516,-23.39978 0.34909,-0.15149 0.71258,-0.27336 1.04726,-0.45447 0.33361,-0.18052 1.27808,-0.81682 0.95004,-0.62637 -12.829189,7.4484 -25.667504,14.88144 -38.455048,22.40111 -0.60122,0.35354 2.738432,-1.028 1.809234,-1.05108 0.584019,-0.47167 1.203935,-0.89769 1.787891,-1.36942 1.369972,-1.10669 2.399452,-2.57199 3.760318,-3.69679 2.556598,-2.39013 4.889054,-5.00905 7.065275,-7.75014 2.707321,-3.65374 -0.07424,0.19776 2.317256,-3.39921 1.554794,-2.33847 3.379154,-4.49942 4.749743,-6.96004 3.563259,-5.95342 -1.29572,2.02833 2.368744,-3.56609 1.336651,-2.04064 2.321657,-4.31047 3.594617,-6.38994 0.22679,-0.47111 0.48368,-0.9289 0.68037,-1.41336 1.6906,-4.16407 -0.6508,1.02396 1.08155,-2.96896 0.53677,-1.23723 0.68799,-1.19879 1.05545,-2.52176 0.11499,-0.41396 0.16233,-0.84378 0.2435,-1.26567 7e-4,-2.49134 0.22181,-4.97507 0.10551,-7.46569 0.0937,-1.71108 0.1746,-3.4269 0.13182,-5.14025 -0.0105,-0.42141 -0.086,-0.83938 -0.0997,-1.2607 -0.0131,-0.39965 0.0129,-0.79962 0.0193,-1.19944 -0.0335,-1.91307 -0.28202,-3.87692 -0.87177,-5.70102 -0.74159,-1.72498 -1.55386,-2.68619 -3.175,-3.67512 -0.921595,-0.65238 -1.916494,-1.42617 -2.971431,-1.8508 -1.043363,-0.41998 -2.179996,-0.36272 -3.27219,-0.51 -2.085044,0.0455 -4.164998,0.20109 -6.252941,0.16185 -2.039934,0.0456 -4.028875,0.45651 -5.996847,0.97954 -3.549592,1.06388 -6.940884,2.54187 -10.294446,4.112 -13.726396,7.60397 -30.570826,17.54732 33.407775,-19.44717 0.39627,-0.22914 -0.8053,0.43721 -1.19027,0.68485 -0.34511,0.22199 -0.64588,0.5097 -0.99696,0.72211 -0.30078,0.18198 -0.63388,0.30421 -0.95082,0.45632 -0.82442,0.69438 -0.64198,0.61659 -1.599622,1.1199 -0.289058,0.15194 -0.608475,0.24711 -0.883704,0.42284 -1.008164,0.64371 -1.884747,1.55686 -2.684663,2.43011 -0.823432,0.97712 -1.633465,1.94905 -2.31112,3.03659 -0.245317,0.39371 -0.429897,0.82531 -0.697272,1.20441 -2.88793,4.09458 1.169943,-2.23725 -1.688772,2.31862 -0.644657,1.26646 -1.354667,2.5651 -1.7511,3.939 -0.135025,0.46794 -0.150822,0.96607 -0.29744,1.43053 -0.188927,0.59849 -0.776721,1.57765 -1.079169,2.11559 -1.016716,1.7504 -0.143729,0.14713 -0.97378,1.97417 -0.660508,1.45385 -1.485193,2.83231 -2.182769,4.26784 -0.930754,1.7818 -1.933947,3.54207 -2.803687,5.35389 -0.243295,0.50684 -0.420567,1.04391 -0.669006,1.54825 -0.258806,0.52538 -0.567274,1.02482 -0.85092,1.53723 -0.687334,1.50903 -1.430798,3.02306 -1.985039,4.58868 -0.307699,0.86919 -0.602428,2.06021 -0.876798,2.94202 -0.126966,0.40808 -0.273744,0.80973 -0.410612,1.2146 -0.702719,2.38146 0.02201,-0.2592 -0.527683,2.43224 -0.375672,1.83934 -1.154979,3.55932 -1.569848,5.38702 -1.001116,2.9901 0.213168,-0.77602 -0.699678,2.56614 -0.503219,1.84244 -1.214919,3.62231 -1.715982,5.4652 -0.514463,1.56248 -0.974388,3.14943 -1.531438,4.69728 -0.622528,1.72979 -1.321424,3.43296 -1.729563,5.23446 -0.16695,0.62333 -0.333897,1.24667 -0.500843,1.87001 -0.142168,0.56402 -0.277753,1.12976 -0.426501,1.69209 -0.138956,0.5253 -0.319417,1.03998 -0.436547,1.57058 -0.128891,0.58386 -0.179284,1.18289 -0.300547,1.76839 -0.729222,3.5209 -0.208935,0.005 -0.679121,3.70173 -1.132066,5.45882 0.385381,-1.70589 -0.807937,3.46629 -0.504734,2.18767 -0.905591,4.40423 -1.565526,6.555 -0.79864,3.32837 -1.019524,6.79817 -2.245341,10.02956 -0.142161,0.47961 -0.256524,0.96835 -0.426482,1.43883 -0.17591,0.48696 -0.414591,0.94903 -0.609399,1.42875 -0.879694,2.16625 -1.770915,4.36415 -2.061538,6.70085 -1.011658,4.12783 -2.273726,8.19915 -4.064483,12.06233 -0.857611,2.49062 -1.655485,4.98938 -2.364406,7.5271 -0.231146,0.82743 -0.391321,1.67587 -0.66738,2.48941 -0.505241,1.48893 -1.373135,2.84288 -1.684417,4.40595 -0.774691,2.74585 -1.686479,5.44602 -2.486028,8.17944 -1.193831,-1.26109 0.144575,0.18628 -2.399207,-3.52635 -0.159158,-0.23228 -0.293625,-0.79133 -0.537941,-0.65133 -13.242168,7.58812 -26.246583,15.58446 -39.3059849,23.48298 -0.5361232,0.32425 2.5157309,-0.73708 1.6040357,-0.97989 0.900064,-2.03789 2.3100092,-3.77887 3.3526192,-5.74522 1.422963,-2.89442 -0.08253,0.2801 1.178744,-2.74248 0.392012,-0.93943 0.834608,-1.64049 1.142336,-2.61396 1.586063,-5.01738 -0.876734,1.92247 0.703987,-2.44055 0.226428,-0.5924 0.651263,-1.67617 0.843924,-2.28803 0.130558,-0.41463 0.205392,-0.84632 0.350222,-1.25618 0.568374,-1.60846 0.39722,-0.70486 1.061874,-2.22428 0.174816,-0.39962 0.297153,-0.82022 0.44573,-1.23033 0.705756,-2.31038 1.244435,-4.66286 1.765831,-7.01867 0.03616,-1.15489 0.193763,-2.24619 0.331166,-3.39063 0.134557,-1.12074 0.181316,-2.25297 0.556077,-3.33291 0.650592,-2.64676 1.540587,-5.24458 1.363221,-8.01978 0.02212,-1.01706 0.005,-1.80965 0.161036,-2.81656 0.0727,-0.46913 0.210475,-0.92601 0.300117,-1.39221 0.301364,-1.56725 0.492166,-3.15371 0.726771,-4.73145 0.28152,-1.73538 0.190029,-1.42598 0.616574,-3.08596 0.112894,-0.43935 0.269025,-0.86789 0.361403,-1.31201 0.103692,-0.49852 0.11996,-1.01272 0.22574,-1.51081 0.219769,-1.03483 0.647053,-2.01965 0.776227,-3.07733 0.261489,-1.00501 0.450714,-2.02823 0.72358,-3.03022 0.142582,-0.52357 0.367674,-1.0226 0.505262,-1.5475 0.441404,-1.68393 0.730964,-3.4345 0.915339,-5.16268 0.168992,-1.38309 0.208078,-1.99931 0.516003,-3.35481 0.421099,-1.8537 0.467349,-1.27597 0.69308,-3.11061 0.06607,-0.53699 0.0653,-1.08046 0.122266,-1.61847 0.05496,-0.519 0.142241,-1.03405 0.213363,-1.55108 0.239587,-1.03084 0.444624,-2.07022 0.71568,-3.09324 0.565378,-2.13386 1.318459,-4.21076 1.610895,-6.41255 0.758196,-2.46554 0.26505,-0.55057 0.683228,-3.268 0.36623,-2.37984 0.229011,-1.07472 0.751029,-3.42284 1.580167,-7.10783 -0.915164,3.45035 0.868804,-4.00324 0.476091,-1.46655 0.895497,-2.95207 1.411459,-4.40508 0.268253,-0.75542 0.627283,-1.47725 0.881919,-2.23738 0.679162,-2.02737 1.278911,-4.164 1.077066,-6.31793 0.783888,-4.10967 -0.260243,1.05216 0.74878,-2.9917 0.132864,-0.53248 0.18545,-1.08256 0.311782,-1.61662 0.358013,-1.51346 1.022781,-2.93301 1.228236,-4.48487 0.406937,-1.5049 0.528029,-1.79654 0.776073,-3.33691 0.09446,-0.58664 0.123026,-1.18304 0.227265,-1.76802 0.319576,-1.79342 0.947224,-3.53922 0.874391,-5.39192 0.04775,-0.60441 0.08214,-1.21003 0.143237,-1.81323 0.05849,-0.57754 0.196341,-1.14793 0.215419,-1.72811 0.02009,-0.61109 -0.06865,-1.22093 -0.09835,-1.83162 -0.07792,-1.60197 -0.124968,-3.20693 -0.309812,-4.80174 -0.04199,-0.80353 -0.109834,-1.78577 -0.0886,-2.59458 0.01126,-0.42914 0.07256,-0.85591 0.08594,-1.28499 0.07231,-2.31844 -0.04795,-0.35745 -0.09259,-2.60885 -0.0081,-0.41003 0.02582,-0.81982 0.03871,-1.22972 0.01657,-2.60745 0.221906,-5.24538 -0.736812,-7.73751 -0.389983,-0.96278 -0.664716,-2.37983 -1.774416,-2.79952 -0.100793,-0.0381 -1.012182,-0.0605 -1.105866,-0.0637 -1.648775,0.62241 -3.332331,1.16508 -4.779978,2.20839 12.702203,-7.32739 25.416599,-14.63368 38.106612,-21.98217 0.315159,-0.1825 -0.672431,0.28799 -0.979989,0.48303 -0.317206,0.20116 -0.558751,0.51086 -0.883872,0.69896 -12.384904,7.16562 -27.640708,17.07341 -42.154191,24.04601 12.847998,-7.4099 25.719191,-14.77974 38.544001,-22.22971 0.325615,-0.18915 -0.700358,0.27878 -1.039201,0.44306 -1.400938,0.67924 -2.379776,1.53869 -3.51028,2.57821 -0.529811,0.42958 -1.09838,0.80995 -1.626852,1.24118 -1.069965,0.87308 -1.783214,2.07833 -2.798776,3.01273 -1.367839,1.57752 -2.418568,3.31455 -3.454306,5.12089 -0.873385,0.77403 -1.116521,1.26135 -1.757318,2.21485 -0.707523,1.05279 -0.366529,0.49386 -1.163452,1.47924 -0.203383,0.25147 -0.391431,0.51496 -0.587146,0.77245 -0.155804,0.34047 -0.283502,0.69527 -0.467416,1.02142 -0.989476,1.75472 -2.576363,3.24415 -3.421055,5.10748 -0.205543,0.27553 -0.396945,0.56219 -0.616627,0.82657 -0.299874,0.3609 -0.779335,0.60924 -0.935752,1.05162 -0.188822,0.53403 -0.0899,1.25652 0.141619,1.75168 0,0 -42.04330674,21.42213 -42.04330674,21.42213 z"
         id="path4648"
         style="fill:#87aade;stroke-width:0.23666984" />
      <path
         inkscape:connector-curvature="0"
         d="m 21.870694,145.55427 c 0.06659,-0.22996 0.155361,-0.45462 0.199751,-0.68987 0.04839,-0.25644 0.168702,-1.55579 0.214158,-1.85339 0.244634,-1.60154 0.544388,-2.55482 1.259532,-3.99405 1.339828,-1.90743 2.393479,-4.00243 3.72769,-5.90985 0.830657,-1.83063 2.071716,-3.41149 3.114549,-5.12177 1.417133,-1.46184 2.470241,-3.18656 3.514801,-4.91793 0.605173,-0.99231 1.421088,-1.81144 2.159599,-2.69476 0.752335,-0.89987 1.228291,-1.62514 2.077316,-2.48452 1.804562,-1.72412 -0.478895,0.42635 1.65591,-1.46925 14.155097,-12.569 -3.620027,1.19716 42.816808,-25.397535 -0.532141,0.187045 2.351647,-1.252766 1.77438,-0.920117 -12.778912,7.36384 -25.595506,14.662122 -38.38038,22.015612 -0.310885,0.17881 0.649699,-0.30669 0.957365,-0.491 0.368653,-0.22081 0.695729,-0.50738 1.06793,-0.72217 13.360508,-7.71011 26.751527,-15.36722 40.127286,-23.050831 1.089894,-0.407804 2.176882,-0.597397 3.327254,-0.679256 0.989389,-0.07041 1.183692,-0.195028 2.17173,0.149541 0.455167,0.158734 0.871628,0.412024 1.307438,0.618037 0.390932,0.216178 0.823548,0.369992 1.172806,0.648536 1.857277,1.481273 3.157908,4.291112 3.882453,6.494913 0.46679,1.594281 0.54861,3.256211 0.77109,4.89143 0.18848,1.38528 0.42293,2.73403 0.53429,4.12947 0.0311,0.4138 0.0884,0.82648 0.0933,1.24143 0.0447,3.76964 -0.18581,-0.89641 -0.0567,2.78017 0.0143,0.40607 0.0757,0.80974 0.0856,1.21593 0.0195,0.79857 -0.058,1.9162 -0.10073,2.70325 -0.40717,3.63018 -0.29355,7.29276 -0.62106,10.92458 -0.23497,1.85164 -0.28391,3.72612 -0.51419,5.57777 -0.215659,1.73418 -0.576581,3.4432 -0.785867,5.17979 -0.149033,2.13195 -0.897953,4.14244 -1.375447,6.20413 -0.34262,1.89972 -0.144882,0.96049 -0.591524,2.81802 -1.490273,3.07699 -2.314072,6.39321 -3.218635,9.66936 -0.978297,3.54323 -0.308889,0.69712 -1.032727,3.99784 -0.443905,1.68398 -0.594118,3.42083 -0.869428,5.13439 -0.26318,1.63808 -0.584251,3.23006 -0.750262,4.883 -0.09451,0.50569 -0.159087,1.01791 -0.28353,1.51708 -0.162092,0.65018 -0.401022,1.27914 -0.574895,1.92627 -0.532344,1.98129 -0.888471,4.02264 -1.280745,6.03527 -0.714992,3.17453 -1.286131,6.37601 -1.930564,9.56485 -0.62454,2.25812 -0.812367,4.6021 -1.187476,6.90604 -0.145374,0.89291 -0.482431,2.25321 -0.684919,3.11502 -0.124765,0.51049 -0.268234,1.01676 -0.374313,1.53144 -0.09137,0.44334 -0.134559,0.89547 -0.217574,1.34046 -0.37693,2.02056 -0.906818,4.00591 -1.442889,5.98838 -0.500779,1.83955 -0.563658,3.74865 -0.749775,5.63192 -0.03736,0.37808 -0.327343,2.29573 -0.377822,2.63535 -0.04663,0.46781 -0.09327,0.93563 -0.1399,1.40344 0.0014,0.42401 0.03663,0.84925 0.0044,1.27205 -0.0444,0.58209 -0.158413,1.15679 -0.233809,1.73569 -0.167446,1.28563 -0.291359,2.57461 -0.450742,3.86109 -0.02541,0.31608 -0.03155,0.63431 -0.07622,0.94825 -0.17498,1.22962 -0.249462,0.98825 -0.462778,2.21544 -0.173069,0.99563 -0.232483,2.02269 -0.365676,3.02491 -0.0754,0.49117 -0.129787,0.98603 -0.226202,1.47352 -0.09474,0.479 -0.58877,2.31224 -0.692996,2.7676 -0.297214,1.29861 -0.524204,2.56024 -0.890803,3.84541 -0.521805,2.44085 -1.579215,4.70218 -2.322678,7.07262 -0.812469,1.81668 -1.462785,3.69903 -2.218435,5.53776 -1.265876,3.08029 -0.03874,-0.21082 -1.105927,2.73567 -0.586096,2.08816 -1.412954,4.02122 -2.581166,5.84499 -0.152614,0.34482 -0.344587,0.67478 -0.45784,1.03445 -0.08564,0.27199 -0.08929,0.56327 -0.133929,0.84492 -13.36123,7.97319 -26.55394,16.23582 -40.083693,23.91957 -0.330967,0.18796 -0.748175,-0.29497 -0.967938,-0.60574 -2.445294,-3.45783 -2.271268,-2.56541 -1.898132,-5.19336 1.009583,-1.85112 2.226384,-3.58651 3.209717,-5.45211 0.69899,-1.32615 1.332429,-2.68604 2.025276,-4.01541 1.289644,-3.13594 2.77291,-6.19939 3.846136,-9.42027 0.428766,-1.28678 1.06129,-3.54462 1.43721,-4.85605 0.46729,-2.67174 1.43004,-5.2064 2.195743,-7.79542 0.262262,-0.88678 0.684509,-2.61166 0.908533,-3.50548 0.532568,-2.25806 0.917771,-4.53836 1.495296,-6.78373 0.115652,-0.44963 0.188002,-0.91108 0.329325,-1.35332 0.167866,-0.52531 0.397531,-1.02882 0.596297,-1.54323 0.156805,-0.47437 0.305503,-0.9515 0.470415,-1.42309 0.316213,-0.90428 0.878291,-2.33134 1.163291,-3.2488 0.517783,-1.66681 0.840167,-3.39682 1.203034,-5.10115 0.37381,-1.57402 0.545995,-3.19687 0.919919,-4.77021 0.421963,-1.77545 0.962839,-3.53956 1.438441,-5.30221 0.154099,-0.59926 0.341288,-1.19095 0.462292,-1.79774 0.342362,-1.71683 0.433525,-3.47368 0.865793,-5.17851 0.33174,-1.30833 0.782925,-2.58353 1.15739,-3.88028 0.65166,-3.17714 1.793348,-6.23491 2.366888,-9.4278 0.886548,-2.70776 1.585363,-5.46545 2.357874,-8.20678 0.856527,-2.49203 1.435349,-5.06654 2.061747,-7.62279 0.769924,-2.06857 1.353563,-4.2173 2.202291,-6.25691 0.494267,-1.18779 1.065657,-2.34208 1.582169,-3.52037 0.927365,-2.7955 2.361222,-5.37308 3.43696,-8.10514 0.85125,-2.17925 1.901763,-4.26309 2.909624,-6.37019 0.418233,-1.19547 1.280048,-2.16081 1.861634,-3.26317 0.233396,-0.44236 0.397184,-0.91811 0.595092,-1.37747 0.88448,-2.05294 0.372047,-0.90467 1.322884,-2.97462 1.005698,-2.55825 2.434967,-4.92025 3.969328,-7.19294 1.086052,-1.40823 1.862611,-3.13928 3.271099,-4.28006 0.297969,-0.24134 0.628302,-0.4397 0.942455,-0.65956 0.357731,-0.28839 0.697342,-0.60083 1.073201,-0.86515 0.414694,-0.29164 0.867333,-0.52543 1.293842,-0.79951 0.439251,-0.28225 0.850607,-0.60863 1.303056,-0.8692 13.308995,-7.66484 26.641704,-15.2885 39.978254,-22.9053 1.55034,-0.88543 1.38161,-0.71764 3.20791,-1.29477 3.69799,-1.69237 7.5062,-3.15601 11.43236,-4.22362 2.42358,-0.77721 4.94518,-0.56328 7.44175,-0.62157 1.32873,0.13503 2.6845,-0.13599 4.01077,0.0325 0.51421,0.0653 1.83999,0.41977 2.30507,0.53785 1.58091,0.16773 2.68185,1.16364 3.95125,1.98498 1.12843,0.73012 2.3558,1.3465 3.52293,2.01382 2.44914,1.28341 3.54878,3.39089 4.75077,5.74141 0.64071,1.52395 1.13339,3.09479 1.25165,4.75458 0.0653,0.91689 0.0378,1.83881 0.10206,2.75582 0.0281,0.41298 0.0815,0.82502 0.0844,1.23898 0.004,0.47327 -0.0634,0.94504 -0.0664,1.41832 -0.0107,1.69484 0.0488,3.38745 0.13671,5.08079 0.002,0.3937 0.003,0.78741 0.004,1.18108 -0.0236,0.43341 -0.0655,0.86619 -0.0708,1.30021 -0.004,0.39716 0.0436,0.79372 0.0403,1.19091 -0.0114,1.40497 -0.1732,2.80526 -0.32995,4.19912 -0.0814,0.59212 -0.15998,1.18464 -0.2441,1.7764 -0.0755,0.53123 -0.12034,1.06828 -0.23481,1.59251 -0.48647,2.22763 -1.50362,4.33848 -2.34074,6.4472 -0.24747,0.54985 -0.46229,1.1156 -0.74242,1.64958 -0.18495,0.35254 -1.92159,3.24783 -2.18333,3.67524 -1.15917,1.89287 -2.32766,3.77296 -3.56415,5.61609 -1.54876,2.23053 -2.77164,4.67346 -4.31988,6.90402 -4.45442,6.41752 1.35127,-2.26181 -2.53306,3.58933 -1.74203,2.67575 -3.62118,5.26151 -5.59081,7.774 -0.83139,1.01832 -1.81012,1.90076 -2.70575,2.85647 -0.76881,0.82036 -1.43169,1.6835 -2.24647,2.46493 -12.5325,12.16877 0.43527,0.65725 -41.607532,24.83644 -0.291401,0.16759 -0.660302,0.15317 -0.963001,0.29937 -0.31558,0.15244 -1.175856,0.76212 -0.872245,0.58705 12.794598,-7.37771 25.564918,-14.79745 38.347388,-22.1962 -1.46449,0.86791 -2.77464,1.97772 -4.09993,3.0413 -0.3224,0.25873 -0.61132,0.5669 -0.9694,0.77346 -13.35383,7.70278 -26.76926,15.29825 -40.153894,22.94737 -0.385484,0.17059 -0.764171,0.35743 -1.156445,0.51173 -2.005091,0.78875 -0.522326,0.10475 -2.521592,0.84563 -1.390187,0.51518 -2.739968,1.18518 -4.098408,1.77678 -0.486335,0.21601 -0.978331,0.41971 -1.459005,0.64804 -1.352864,0.64264 -1.548585,0.86358 -2.966278,1.38898 -1.405862,0.521 -2.882392,0.87333 -4.34793,1.17103 -1.67865,0.12029 -3.425238,-0.0378 -5.085998,0.29664 -3.019093,0.60809 0.896163,0.0631 -2.17757,0.44512 -2.123452,0.26631 -4.277048,0.48474 -6.420702,0.45658 -1.748096,0.0676 -3.494586,-0.003 -5.242311,0.0535 -2.438712,0.21717 -3.526808,-1.45744 -4.427802,-3.48185 -0.965347,-2.0443 -1.052586,-4.31844 -1.321585,-6.5246 -0.0584,-1.77702 -0.411053,-3.62371 -0.147441,-5.40083 0.05886,-0.39681 0.194493,-0.77836 0.291739,-1.16755 0.483102,-1.00002 1.19197,-3.04705 2.151534,-3.61022 37.435407,-21.97051 26.366489,-16.53706 41.106194,-23.73821 1.038685,-0.63245 2.139832,-0.61321 3.301019,-0.69363 0.805989,-0.0558 1.613517,-0.20088 2.424095,-0.20258 0.406864,-9e-4 0.812242,0.0494 1.218363,0.0741 2.541759,-0.0941 5.072877,-0.0833 7.579197,0.3699 0.37432,0.0581 0.75968,0.0671 1.12295,0.17453 0.708,0.20931 1.6296,0.78316 2.24748,1.14264 1.03093,0.59982 2.0622,1.19914 3.08598,1.81113 0.28045,0.11964 0.57807,0.20517 0.84137,0.35892 2.35045,1.37257 -0.47144,0.0174 1.9461,1.32469 0.31318,0.16934 0.66607,0.25782 0.97776,0.42986 3.3091,1.82635 -1.03514,-0.29187 2.26734,1.27058 0.3688,0.17289 0.72837,0.36702 1.10641,0.51865 0.33274,0.13349 0.69632,0.18528 1.02201,0.33516 0.83967,0.38643 1.53003,0.97052 2.3296,1.42391 0.92478,0.52438 1.25648,0.59889 2.2321,0.94992 1.95524,0.97461 4.06383,1.38378 6.21248,1.68629 1.37525,0.72059 2.9125,0.88632 4.39021,1.25761 1.40891,0.35401 2.79599,0.76653 4.13882,1.31512 0.98208,0.31121 1.29968,0.44318 2.28196,0.64105 0.30252,0.0609 0.61805,0.0576 0.91481,0.14221 1.05915,0.30206 2.09887,1.00431 3.123,1.45742 0.28453,0.0875 0.57965,0.14582 0.85353,0.26239 0.33814,0.14388 0.63972,0.36397 0.9745,0.51551 0.59271,0.26829 1.22449,0.44134 1.82677,0.68741 1.63079,0.66623 0.35316,0.21751 1.88855,0.72156 0,0 -38.41077,25.61378 -38.41077,25.61378 v 0 c -1.76412,-0.94939 -3.69065,-1.52757 -5.48356,-2.41699 -0.26928,-0.13355 -0.52721,-0.29296 -0.80783,-0.40065 -0.68562,-0.26308 -1.17872,-0.25248 -1.88971,-0.48012 -0.87686,-0.28076 -1.11598,-0.4884 -1.92423,-0.86719 -0.33505,-0.15703 -0.6776,-0.29751 -1.0164,-0.44625 -2.623299,-0.79764 -5.219559,-1.83308 -7.983072,-2.02194 -2.527759,-0.54154 -5.110316,-0.94646 -7.243842,-2.53094 -0.699007,-0.44725 -1.368774,-0.89724 -2.108928,-1.27828 -1.476248,-0.75994 -3.124175,-1.16035 -4.490434,-2.14768 -2.430013,-1.40825 0.312205,0.12243 -2.288079,-1.14255 -3.180006,-1.54698 0.629295,0.17299 -2.236355,-1.20644 -0.333999,-0.16077 -0.692274,-0.26916 -1.021583,-0.43933 -0.339591,-0.17548 -0.653491,-0.39675 -0.980237,-0.59513 -1.087252,-0.66107 -2.188475,-1.2599 -3.475234,-1.41122 -0.317169,-0.0373 -0.639073,-0.0216 -0.956274,-0.0586 -0.279709,-0.0326 -0.55425,-0.10007 -0.831376,-0.15012 -2.275659,-0.10517 -4.55634,0.0692 -6.822357,0.27017 -1.066486,0.24605 -2.249904,0.42121 -3.260505,0.8652 -0.994203,0.43678 -1.82632,1.14736 -2.784736,1.64677 -13.28603,7.9356 -19.027131,11.35898 37.55312,-21.77076 0.2625,-0.1537 -0.56459,0.2362 -0.862298,0.29864 -0.290587,0.0609 -0.612643,-0.0423 -0.888114,0.0685 -0.50473,0.20303 -0.73603,0.85551 -1.240457,1.06068 -0.232301,0.17601 -0.880528,0.63285 -1.047594,0.89336 -0.64319,1.0029 -0.334793,2.34527 -0.409233,3.45016 0.01368,1.45636 0.06217,3.01826 0.848496,4.29272 0.721682,0.76896 0.08596,0.0886 0.17559,-0.25174 0.05233,-0.19877 1.332412,-0.18956 1.444743,-0.14944 1.641497,0.0608 3.28219,-0.005 4.924054,-0.0336 1.931924,-0.16858 3.869429,-0.25458 5.779185,-0.62523 0.39635,-0.0691 0.78874,-0.16713 1.18907,-0.20736 0.36895,-0.037 0.74177,-0.006 1.11217,-0.0239 1.55735,-0.0737 3.13166,-0.23893 4.58405,-0.84052 2.68165,-0.91941 5.18866,-2.23589 7.80428,-3.32393 2.73553,-1.17701 5.51509,-2.26489 8.12228,-3.71462 -12.63799,7.27783 -25.304695,14.50604 -37.913999,21.83348 -0.363615,0.2113 0.789924,-0.29326 1.167063,-0.47934 1.389794,-0.68577 2.622728,-1.74186 3.707167,-2.8293 13.346839,-7.79993 26.693669,-15.59986 40.040509,-23.39977 0.34908,-0.1515 0.71258,-0.27337 1.04726,-0.45447 0.3336,-0.18053 1.27808,-0.81682 0.95004,-0.62637 -12.82919,7.44839 -25.6675,14.88144 -38.455041,22.40111 -0.60122,0.35354 2.738441,-1.02801 1.809243,-1.05108 0.58401,-0.47168 1.203935,-0.8977 1.787891,-1.36943 1.369963,-1.10669 2.399447,-2.57198 3.760307,-3.69679 2.5566,-2.39013 4.88905,-5.00904 7.06528,-7.75015 2.70731,-3.65374 -0.0742,0.19778 2.31725,-3.3992 1.55479,-2.33846 3.37915,-4.49942 4.74974,-6.96004 3.56325,-5.95341 -1.29572,2.02832 2.36874,-3.56609 1.33665,-2.04064 2.32166,-4.31048 3.59462,-6.38994 0.22679,-0.47111 0.48367,-0.9289 0.68037,-1.41336 1.6906,-4.16407 -0.65081,1.02397 1.08154,-2.96896 0.53678,-1.23723 0.68799,-1.19878 1.05546,-2.52175 0.11499,-0.41396 0.16233,-0.8438 0.24349,-1.26568 7.2e-4,-2.49133 0.22181,-4.97506 0.10552,-7.46568 0.0936,-1.71109 0.1746,-3.42692 0.13182,-5.14027 -0.0105,-0.4214 -0.086,-0.83936 -0.0997,-1.26069 -0.0131,-0.39964 0.0129,-0.79963 0.0193,-1.19943 -0.0335,-1.91308 -0.28203,-3.87694 -0.87177,-5.70102 -0.7416,-1.72499 -1.55387,-2.68619 -3.175,-3.67514 -0.9216,-0.65237 -1.9165,-1.42616 -2.97143,-1.8508 -1.04337,-0.41996 -2.18,-0.36272 -3.27219,-0.51 -2.08505,0.0455 -4.16499,0.2011 -6.25295,0.16185 -2.03993,0.0456 -4.02886,0.45651 -5.99683,0.97955 -3.549594,1.06389 -6.940886,2.54187 -10.294447,4.11199 -13.726397,7.60397 -30.570826,17.54734 33.407767,-19.44716 0.39626,-0.22914 -0.8053,0.43721 -1.19028,0.68484 -0.3451,0.22201 -0.64588,0.50972 -0.99695,0.72212 -0.30079,0.18197 -0.63388,0.30421 -0.95082,0.45632 -0.82442,0.69438 -0.64198,0.61659 -1.59963,1.1199 -0.28905,0.15193 -0.60847,0.24712 -0.8837,0.42284 -1.00816,0.64371 -1.88475,1.55686 -2.68466,2.43011 -0.82343,0.97711 -1.63347,1.94905 -2.31112,3.03659 -0.24532,0.39371 -0.4299,0.82531 -0.69727,1.20441 -2.88793,4.09458 1.16994,-2.23725 -1.68878,2.31862 -0.64465,1.26646 -1.35465,2.56509 -1.75109,3.939 -0.13502,0.46794 -0.15082,0.96607 -0.29744,1.43053 -0.18892,0.59848 -0.77672,1.57765 -1.07917,2.11559 -1.01672,1.7504 -0.14373,0.14713 -0.97378,1.97416 -0.6605,1.45385 -1.4852,2.83232 -2.18277,4.26784 -0.93075,1.7818 -1.93394,3.54209 -2.80368,5.35391 -0.2433,0.50683 -0.42057,1.0439 -0.66901,1.54824 -0.2588,0.52538 -0.56727,1.02482 -0.85092,1.53723 -0.68733,1.50903 -1.4308,3.02305 -1.985036,4.58869 -0.307699,0.86918 -0.602428,2.0602 -0.876798,2.94201 -0.126965,0.40809 -0.273744,0.80973 -0.410611,1.2146 -0.70272,2.38147 0.022,-0.25919 -0.527684,2.43224 -0.375672,1.83934 -1.154979,3.55933 -1.569848,5.38702 -1.001115,2.99009 0.213169,-0.77601 -0.699678,2.56614 -0.503219,1.84245 -1.214919,3.62231 -1.715982,5.4652 -0.514463,1.56248 -0.974388,3.14944 -1.531438,4.69727 -0.622528,1.7298 -1.321428,3.43296 -1.729561,5.23448 -0.16695,0.62333 -0.333899,1.24666 -0.500849,1.87 -0.142163,0.56403 -0.277751,1.12977 -0.426497,1.69209 -0.138952,0.5253 -0.319418,1.03999 -0.436543,1.57058 -0.128898,0.58386 -0.179285,1.18289 -0.300552,1.76839 -0.729224,3.5209 -0.208938,0.005 -0.679123,3.70173 -1.132062,5.45883 0.385387,-1.70589 -0.80793,3.4663 -0.50474,2.18766 -0.905592,4.40422 -1.565528,6.55499 -0.798645,3.32838 -1.019524,6.79817 -2.245343,10.02955 -0.14216,0.47963 -0.256522,0.96836 -0.426482,1.43884 -0.175909,0.48697 -0.414591,0.94902 -0.609398,1.42875 -0.879695,2.16626 -1.770916,4.36415 -2.061539,6.70086 -1.011657,4.12783 -2.273725,8.19915 -4.064483,12.06232 -0.857611,2.49063 -1.655485,4.98938 -2.364405,7.5271 -0.231146,0.82744 -0.391322,1.67588 -0.667381,2.48942 -0.50524,1.48893 -1.373135,2.84287 -1.684417,4.40595 -0.774691,2.74584 -1.686478,5.44602 -2.486027,8.17943 -1.193832,-1.26108 0.144574,0.18628 -2.399207,-3.52634 -0.159159,-0.23228 -0.293625,-0.79133 -0.537942,-0.65133 -13.242168,7.58812 -26.246583,15.58446 -39.305985,23.48297 -0.536122,0.32426 2.515731,-0.73707 1.604036,-0.97989 0.900064,-2.03788 2.31001,-3.77887 3.352619,-5.74522 1.422963,-2.89441 -0.08253,0.28011 1.178744,-2.74247 0.392012,-0.93943 0.834608,-1.64049 1.142337,-2.61397 1.586063,-5.01737 -0.876735,1.92247 0.703987,-2.44054 0.226427,-0.59241 0.651263,-1.67617 0.843924,-2.28803 0.130558,-0.41463 0.205391,-0.84634 0.350222,-1.25619 0.568374,-1.60845 0.397219,-0.70485 1.061873,-2.22427 0.174816,-0.39963 0.297153,-0.82022 0.445731,-1.23033 0.705755,-2.3104 1.244435,-4.66286 1.765831,-7.01867 0.03616,-1.15491 0.193763,-2.24619 0.331165,-3.39063 0.134557,-1.12076 0.181316,-2.25298 0.556078,-3.33292 0.650592,-2.64675 1.540587,-5.24458 1.36322,-8.01977 0.02212,-1.01707 0.005,-1.80967 0.161037,-2.81656 0.0727,-0.46913 0.210475,-0.92601 0.300116,-1.39221 0.301365,-1.56725 0.492167,-3.15371 0.726772,-4.73146 0.281521,-1.73537 0.190029,-1.42598 0.616574,-3.08595 0.112894,-0.43935 0.269025,-0.86789 0.361403,-1.31201 0.103692,-0.49852 0.11996,-1.01273 0.225739,-1.51082 0.21977,-1.03483 0.647054,-2.01964 0.776228,-3.07732 0.261489,-1.00501 0.450713,-2.02824 0.723579,-3.03023 0.142582,-0.52356 0.367676,-1.02259 0.505262,-1.54749 0.441404,-1.68395 0.730964,-3.4345 0.915339,-5.16268 0.168992,-1.38309 0.208078,-1.99931 0.516002,-3.35482 0.4211,-1.8537 0.46735,-1.27598 0.693081,-3.1106 0.06607,-0.537 0.0653,-1.08047 0.122268,-1.61849 0.05496,-0.51899 0.142238,-1.03404 0.21336,-1.55107 0.239588,-1.03085 0.444625,-2.07022 0.715681,-3.09324 0.56538,-2.13385 1.318459,-4.21076 1.610895,-6.41254 0.758196,-2.46555 0.265049,-0.55058 0.683229,-3.268 0.366229,-2.37986 0.22901,-1.07474 0.751028,-3.42285 1.580167,-7.10784 -0.915164,3.45034 0.868803,-4.00323 0.476093,-1.46655 0.895498,-2.95209 1.411459,-4.40509 0.268253,-0.75542 0.627284,-1.47724 0.88192,-2.23738 0.679162,-2.02737 1.278912,-4.164 1.077065,-6.31792 0.783889,-4.10967 -0.260241,1.05215 0.748781,-2.99171 0.132864,-0.53249 0.18545,-1.08256 0.311782,-1.61662 0.358012,-1.51346 1.022781,-2.933 1.228236,-4.48487 0.406938,-1.50489 0.52803,-1.79653 0.776074,-3.33692 0.09446,-0.58663 0.123026,-1.18304 0.227264,-1.768 0.319576,-1.79342 0.947224,-3.53923 0.874391,-5.39194 0.04775,-0.6044 0.08214,-1.21002 0.143238,-1.81323 0.05849,-0.57752 0.196341,-1.14792 0.215419,-1.7281 0.02009,-0.6111 -0.06865,-1.22093 -0.09835,-1.83162 -0.07792,-1.60197 -0.124967,-3.20693 -0.309812,-4.80173 -0.04199,-0.80353 -0.109834,-1.78578 -0.0886,-2.59458 0.01126,-0.42914 0.07256,-0.85591 0.08594,-1.285 0.07231,-2.31844 -0.04795,-0.35744 -0.09259,-2.60885 -0.0081,-0.41003 0.02581,-0.81981 0.03871,-1.22973 0.01657,-2.60745 0.221905,-5.24536 -0.736813,-7.73749 -0.389981,-0.96278 -0.664715,-2.37984 -1.774415,-2.79952 -0.100793,-0.0381 -1.012183,-0.0605 -1.105866,-0.0637 -1.648777,0.62239 -3.332332,1.16507 -4.779978,2.20838 12.702201,-7.32739 25.416598,-14.63368 38.106612,-21.982162 0.315159,-0.182501 -0.672432,0.287985 -0.979988,0.483025 -0.317207,0.201161 -0.558758,0.510857 -0.883873,0.698964 -12.384906,7.165613 -27.640708,17.073393 -42.154192,24.046003 12.847998,-7.4099 25.71919,-14.77974 38.543998,-22.229707 0.325616,-0.189152 -0.700354,0.278778 -1.039198,0.443065 -1.400937,0.67924 -2.379777,1.538682 -3.51028,2.578202 -0.529812,0.42958 -1.098381,0.80995 -1.62685,1.24118 -1.069966,0.87308 -1.783215,2.07833 -2.798777,3.01273 -1.367838,1.57752 -2.418568,3.31455 -3.454306,5.12089 -0.873384,0.77403 -1.11652,1.26135 -1.757318,2.21485 -0.707525,1.05279 -0.366529,0.49386 -1.163452,1.47923 -0.203383,0.25147 -0.391431,0.51497 -0.587148,0.77246 -0.155802,0.34047 -0.283502,0.69527 -0.467413,1.02142 -0.989479,1.75472 -2.576365,3.24415 -3.421056,5.10748 -0.205543,0.27552 -0.396947,0.56218 -0.616626,0.82657 -0.299875,0.3609 -0.779335,0.60924 -0.935755,1.05162 -0.18882,0.53403 -0.08989,1.25651 0.141621,1.75168 0,0 -42.043308,21.42214 -42.043308,21.42214 z"
         id="path4648-2"
         style="fill:#000000;stroke-width:0.23666984" />
    </g>
  </g>
</svg>
